<svg width="41" height="41" viewBox="0 0 41 41" fill="none" xmlns="http://www.w3.org/2000/svg">
<rect x="0.332031" y="0.863281" width="40" height="40" rx="20" fill="white"/>
<path d="M20.335 16.3701C17.8506 16.3701 15.8467 18.374 15.8467 20.8584C15.8467 23.3428 17.8506 25.3467 20.335 25.3467C22.8193 25.3467 24.8232 23.3428 24.8232 20.8584C24.8232 18.374 22.8193 16.3701 20.335 16.3701ZM20.335 23.7764C18.7295 23.7764 17.417 22.4678 17.417 20.8584C17.417 19.249 18.7256 17.9404 20.335 17.9404C21.9443 17.9404 23.2529 19.249 23.2529 20.8584C23.2529 22.4678 21.9404 23.7764 20.335 23.7764ZM26.0537 16.1865C26.0537 16.7686 25.585 17.2334 25.0068 17.2334C24.4248 17.2334 23.96 16.7646 23.96 16.1865C23.96 15.6084 24.4287 15.1396 25.0068 15.1396C25.585 15.1396 26.0537 15.6084 26.0537 16.1865ZM29.0264 17.249C28.96 15.8467 28.6396 14.6045 27.6123 13.5811C26.5889 12.5576 25.3467 12.2373 23.9443 12.167C22.499 12.085 18.167 12.085 16.7217 12.167C15.3232 12.2334 14.0811 12.5537 13.0537 13.5771C12.0264 14.6006 11.71 15.8428 11.6396 17.2451C11.5576 18.6904 11.5576 23.0225 11.6396 24.4678C11.7061 25.8701 12.0264 27.1123 13.0537 28.1357C14.0811 29.1592 15.3193 29.4795 16.7217 29.5498C18.167 29.6318 22.499 29.6318 23.9443 29.5498C25.3467 29.4834 26.5889 29.1631 27.6123 28.1357C28.6357 27.1123 28.9561 25.8701 29.0264 24.4678C29.1084 23.0225 29.1084 18.6943 29.0264 17.249ZM27.1592 26.0186C26.8545 26.7842 26.2646 27.374 25.4951 27.6826C24.3428 28.1396 21.6084 28.0342 20.335 28.0342C19.0615 28.0342 16.3232 28.1357 15.1748 27.6826C14.4092 27.3779 13.8193 26.7881 13.5107 26.0186C13.0537 24.8662 13.1592 22.1318 13.1592 20.8584C13.1592 19.585 13.0576 16.8467 13.5107 15.6982C13.8154 14.9326 14.4053 14.3428 15.1748 14.0342C16.3271 13.5771 19.0615 13.6826 20.335 13.6826C21.6084 13.6826 24.3467 13.5811 25.4951 14.0342C26.2607 14.3389 26.8506 14.9287 27.1592 15.6982C27.6162 16.8506 27.5107 19.585 27.5107 20.8584C27.5107 22.1318 27.6162 24.8701 27.1592 26.0186Z" fill="#412C9B"/>
</svg>
