<svg width="40" height="41" viewBox="0 0 40 41" fill="none" xmlns="http://www.w3.org/2000/svg">
<rect y="0.863281" width="40" height="40" rx="20" fill="white"/>
<path d="M15.168 29.6133H11.5391V17.9297H15.168V29.6133ZM13.3516 16.3359C12.1914 16.3359 11.25 15.375 11.25 14.2148C11.25 13.0547 12.1914 12.1133 13.3516 12.1133C14.5117 12.1133 15.4531 13.0547 15.4531 14.2148C15.4531 15.375 14.5117 16.3359 13.3516 16.3359ZM28.75 29.6133H25.1289V23.9258C25.1289 22.5703 25.1016 20.832 23.2422 20.832C21.3555 20.832 21.0664 22.3047 21.0664 23.8281V29.6133H17.4414V17.9297H20.9219V19.5234H20.9727C21.457 18.6055 22.6406 17.6367 24.4062 17.6367C28.0781 17.6367 28.7539 20.0547 28.7539 23.1953V29.6133H28.75Z" fill="#412C9B"/>
</svg>
