<svg width="200" height="40" viewBox="0 0 200 40" fill="none" xmlns="http://www.w3.org/2000/svg">
<g clip-path="url(#clip0_3270_9289)">
<g clip-path="url(#clip1_3270_9289)">
<g clip-path="url(#clip2_3270_9289)">
<g clip-path="url(#clip3_3270_9289)">
<mask id="mask0_3270_9289" style="mask-type:luminance" maskUnits="userSpaceOnUse" x="0" y="0" width="200" height="40">
<path d="M199.992 0.959961H0.0117188V39.04H199.992V0.959961Z" fill="white"/>
</mask>
<g mask="url(#mask0_3270_9289)">
<path d="M24.1989 37.8609L12.7649 23.1729V37.8609H0.117188V2.0332H25.0595C33.4578 2.0332 38.7199 6.84324 38.7199 14.1114C38.7199 20.509 34.7231 24.9617 28.6026 25.4728L39.0753 37.8586H24.2012L24.1989 37.8609ZM19.898 19.385C23.6423 19.385 25.6139 17.9016 25.6139 15.0861C25.6139 12.4244 23.7921 11.0427 20.2513 11.0427H12.7627V19.385H19.8958H19.898Z" fill="black"/>
<path d="M42.3125 22.2502V2.0332H54.9088V21.9947C54.9088 26.1399 57.3879 28.4443 61.6888 28.4443C65.9896 28.4443 68.4172 26.1422 68.4172 21.9947V2.0332H81.0158V22.2502C81.0158 32.6393 73.5787 39.039 61.6888 39.039C49.7987 39.039 42.3125 32.6415 42.3125 22.2502Z" fill="black"/>
<path d="M98.8235 11.7075V16.5696H117.999V24.912H98.8235V37.8609H86.1758V2.0332H119.009V11.7075H98.8235Z" fill="black"/>
<path d="M122.684 22.2502V2.0332H135.28V21.9947C135.28 26.1399 137.759 28.4443 142.059 28.4443C146.36 28.4443 148.788 26.1422 148.788 21.9947V2.0332H161.386V22.2502C161.386 32.6393 153.95 39.039 142.059 39.039C130.169 39.039 122.684 32.6415 122.684 22.2502Z" fill="black"/>
<path d="M165.1 34.4828V25.2202C169.402 27.9315 174.965 29.8267 180.732 29.8267C184.729 29.8267 186.651 29.1097 186.651 27.5245C186.651 26.1429 185.59 25.3739 182.05 24.7611L176.99 23.8407C168.492 22.3052 164.848 18.5694 164.848 12.5811C164.848 5.77421 170.715 0.961914 182.958 0.961914C190.447 0.961914 195.201 2.90673 197.834 4.54399V13.4495C195.302 12.0157 190.497 10.3264 184.577 10.3264C179.871 10.3264 178.05 11.1451 178.05 12.4771C178.05 13.6552 178.96 14.1663 182.199 14.6276L187.866 15.5481C196.06 16.9298 199.957 20.1546 199.957 26.6538C199.957 34.1256 192.823 38.9379 182.148 38.9379C175.115 38.9379 169.196 37.0451 165.098 34.4851" fill="black"/>
</g>
</g>
</g>
</g>
</g>
<defs>
<clipPath id="clip0_3270_9289">
<rect width="200" height="38.08" fill="white" transform="translate(0 0.959961)"/>
</clipPath>
<clipPath id="clip1_3270_9289">
<rect width="200" height="38.08" fill="white" transform="translate(0 0.959961)"/>
</clipPath>
<clipPath id="clip2_3270_9289">
<rect width="200" height="38.08" fill="white" transform="translate(0 0.959961)"/>
</clipPath>
<clipPath id="clip3_3270_9289">
<rect width="199.98" height="38.08" fill="white" transform="translate(0.0117188 0.959961)"/>
</clipPath>
</defs>
</svg>
