<svg width="242" height="44" viewBox="0 0 242 44" fill="none" xmlns="http://www.w3.org/2000/svg">
<g clip-path="url(#clip0_3330_9344)">
<g clip-path="url(#clip1_3330_9344)">
<g clip-path="url(#clip2_3330_9344)">
<mask id="mask0_3330_9344" style="mask-type:luminance" maskUnits="userSpaceOnUse" x="0" y="0" width="242" height="44">
<path d="M242 0.863281H0V43.8633H242V0.863281Z" fill="white"/>
</mask>
<g mask="url(#mask0_3330_9344)">
<path d="M27.6738 42.5347L14.5343 25.9491V42.5347H0V2.07812H28.6628C38.3138 2.07812 44.3608 7.50963 44.3608 15.7169C44.3608 22.941 39.7678 27.969 32.7344 28.5461L44.7692 42.5322H27.6764L27.6738 42.5347ZM22.7314 21.6719C27.0342 21.6719 29.2999 19.9967 29.2999 16.8175C29.2999 13.8119 27.2063 12.2516 23.1373 12.2516H14.5318V21.6719H22.7288H22.7314Z" fill="white"/>
<path d="M48.4883 24.9053V2.07617H62.9635V24.6168C62.9635 29.2975 65.8123 31.8996 70.7547 31.8996C75.6971 31.8996 78.4869 29.3001 78.4869 24.6168V2.07617H92.9647V24.9053C92.9647 36.6366 84.4182 43.8632 70.7547 43.8632C57.0912 43.8632 48.4883 36.6391 48.4883 24.9053Z" fill="white"/>
<path d="M113.429 13.0005V18.4907H135.464V27.9109H113.429V42.5328H98.8945V2.07617H136.625V13.0005H113.429Z" fill="white"/>
<path d="M140.852 24.9053V2.07617H155.327V24.6168C155.327 29.2975 158.176 31.8996 163.118 31.8996C168.06 31.8996 170.85 29.3001 170.85 24.6168V2.07617H185.328V24.9053C185.328 36.6366 176.782 43.8632 163.118 43.8632C149.455 43.8632 140.852 36.6391 140.852 24.9053Z" fill="white"/>
<path d="M189.595 38.7192V28.2596C194.537 31.3214 200.931 33.4613 207.559 33.4613C212.152 33.4613 214.361 32.6518 214.361 30.8618C214.361 29.3015 213.141 28.4333 209.072 27.7413L203.258 26.702C193.492 24.9681 189.305 20.7495 189.305 13.9876C189.305 6.30124 196.048 0.867188 210.117 0.867188C218.723 0.867188 224.187 3.06328 227.21 4.91209V14.9682C224.302 13.3492 218.779 11.4417 211.977 11.4417C206.57 11.4417 204.476 12.3661 204.476 13.8701C204.476 15.2006 205.522 15.7777 209.244 16.2986L215.756 17.3379C225.173 18.8982 229.65 22.5396 229.65 29.8786C229.65 38.3157 221.453 43.7498 209.185 43.7498C201.103 43.7498 194.301 41.6124 189.592 38.7217" fill="white"/>
<path d="M238.662 43.3284C238.293 43.3284 237.943 43.2722 237.609 43.1624C237.275 43.05 236.97 42.8943 236.692 42.69C236.415 42.4882 236.173 42.2482 235.97 41.9724C235.767 41.6966 235.608 41.3927 235.495 41.0608C235.382 40.7288 235.328 40.379 235.328 40.0138C235.328 39.6486 235.385 39.2988 235.495 38.9668C235.608 38.6349 235.765 38.331 235.97 38.0552C236.176 37.7794 236.415 37.5394 236.692 37.3376C236.97 37.1359 237.275 36.9776 237.609 36.8652C237.943 36.7529 238.293 36.6992 238.662 36.6992C239.032 36.6992 239.382 36.7554 239.716 36.8652C240.05 36.9776 240.355 37.1334 240.633 37.3376C240.91 37.5394 241.152 37.7794 241.355 38.0552C241.557 38.331 241.717 38.6349 241.83 38.9668C241.943 39.2988 241.997 39.6461 241.997 40.0138C241.997 40.3815 241.94 40.7288 241.83 41.0608C241.717 41.3927 241.56 41.6966 241.355 41.9724C241.152 42.2482 240.91 42.4882 240.633 42.69C240.355 42.8917 240.05 43.05 239.716 43.1624C239.382 43.2747 239.032 43.3284 238.662 43.3284ZM238.662 42.9275C238.986 42.9275 239.297 42.8789 239.59 42.7793C239.883 42.6823 240.152 42.5419 240.396 42.3631C240.64 42.1844 240.854 41.975 241.033 41.7298C241.213 41.4872 241.352 41.2191 241.45 40.928C241.547 40.6369 241.596 40.3304 241.596 40.0087C241.596 39.6869 241.547 39.378 241.45 39.0868C241.352 38.7957 241.213 38.5276 241.033 38.285C240.854 38.0424 240.64 37.8305 240.396 37.6517C240.152 37.473 239.883 37.3351 239.59 37.238C239.297 37.141 238.989 37.0925 238.662 37.0925C238.336 37.0925 238.028 37.141 237.735 37.238C237.442 37.3351 237.173 37.473 236.929 37.6517C236.684 37.8305 236.471 38.0399 236.291 38.285C236.112 38.5276 235.973 38.7957 235.875 39.0868C235.778 39.378 235.729 39.6844 235.729 40.0087C235.729 40.333 235.778 40.6369 235.875 40.928C235.973 41.2191 236.112 41.4872 236.291 41.7298C236.471 41.9724 236.684 42.1844 236.929 42.3631C237.173 42.5419 237.442 42.6798 237.735 42.7793C238.028 42.8764 238.336 42.9275 238.662 42.9275ZM237.494 41.7758V38.2467H238.693C238.971 38.2467 239.199 38.2927 239.377 38.3872C239.554 38.4816 239.685 38.6093 239.772 38.7728C239.857 38.9362 239.901 39.12 239.901 39.3294C239.901 39.5388 239.857 39.7227 239.772 39.8836C239.687 40.0444 239.556 40.1696 239.379 40.2615C239.202 40.3534 238.976 40.3994 238.701 40.3994H237.73V40.0138H238.686C238.876 40.0138 239.027 39.9857 239.145 39.9321C239.261 39.8759 239.346 39.7993 239.397 39.6972C239.449 39.595 239.477 39.475 239.477 39.332C239.477 39.189 239.451 39.0664 239.397 38.9617C239.343 38.857 239.258 38.7753 239.143 38.7166C239.027 38.6578 238.871 38.6298 238.68 38.6298H237.925V41.7783H237.496L237.494 41.7758ZM239.166 40.19L240.039 41.7758H239.541L238.68 40.19H239.166Z" fill="white"/>
</g>
</g>
</g>
</g>
<defs>
<clipPath id="clip0_3330_9344">
<rect width="242" height="43" fill="white" transform="translate(0 0.863281)"/>
</clipPath>
<clipPath id="clip1_3330_9344">
<rect width="242" height="43" fill="white" transform="translate(0 0.863281)"/>
</clipPath>
<clipPath id="clip2_3330_9344">
<rect width="242" height="43" fill="white" transform="translate(0 0.863281)"/>
</clipPath>
</defs>
</svg>
