<svg width="150" height="27" viewBox="0 0 150 27" fill="none" xmlns="http://www.w3.org/2000/svg">
<g clip-path="url(#clip0_3330_9929)">
<path d="M17.0629 26.1647L8.96147 15.7505V26.1647H0V0.761719H17.6727C23.6232 0.761719 27.3516 4.17219 27.3516 9.32559C27.3516 13.8617 24.5197 17.0188 20.1831 17.3812L27.6035 26.1631H17.0645L17.0629 26.1647ZM14.0156 13.0648C16.6685 13.0648 18.0655 12.0129 18.0655 10.0167C18.0655 8.12944 16.7746 7.14975 14.2658 7.14975H8.95989V13.0648H14.014H14.0156Z" fill="black"/>
<path d="M29.8984 15.0963V0.761719H38.8235V14.9151C38.8235 17.8542 40.58 19.4881 43.6273 19.4881C46.6747 19.4881 48.3947 17.8558 48.3947 14.9151V0.761719H57.3214V15.0963C57.3214 22.4624 52.0519 27.0001 43.6273 27.0001C35.2028 27.0001 29.8984 22.464 29.8984 15.0963Z" fill="black"/>
<path d="M69.938 7.62115V11.0685H83.5244V16.9835H69.938V26.1647H60.9766V0.761719H84.2403V7.62115H69.938Z" fill="black"/>
<path d="M86.8438 15.0963V0.761719H95.7688V14.9151C95.7688 17.8542 97.5253 19.4881 100.573 19.4881C103.62 19.4881 105.34 17.8558 105.34 14.9151V0.761719H114.267V15.0963C114.267 22.4624 108.997 27.0001 100.573 27.0001C92.1481 27.0001 86.8438 22.464 86.8438 15.0963Z" fill="black"/>
<path d="M116.898 23.7695V17.2018C119.945 19.1243 123.887 20.468 127.974 20.468C130.806 20.468 132.168 19.9597 132.168 18.8357C132.168 17.856 131.415 17.3109 128.907 16.8764L125.322 16.2238C119.3 15.135 116.719 12.4862 116.719 8.24033C116.719 3.41403 120.876 0.00195312 129.551 0.00195312C134.857 0.00195312 138.226 1.38089 140.09 2.54177V8.85604C138.297 7.83947 134.892 6.64172 130.698 6.64172C127.364 6.64172 126.073 7.22216 126.073 8.16657C126.073 9.00195 126.718 9.36433 129.013 9.69142L133.028 10.344C138.834 11.3237 141.595 13.6102 141.595 18.2184C141.595 23.5161 136.541 26.9282 128.976 26.9282C123.993 26.9282 119.799 25.5861 116.896 23.7711" fill="black"/>
<path d="M147.154 26.6635C146.925 26.6635 146.71 26.6282 146.504 26.5592C146.298 26.4887 146.11 26.3909 145.939 26.2626C145.768 26.1359 145.619 25.9852 145.494 25.812C145.368 25.6389 145.27 25.4481 145.201 25.2396C145.131 25.0312 145.098 24.8115 145.098 24.5822C145.098 24.3529 145.133 24.1333 145.201 23.9248C145.27 23.7164 145.367 23.5256 145.494 23.3524C145.62 23.1792 145.768 23.0285 145.939 22.9018C146.11 22.7752 146.298 22.6757 146.504 22.6052C146.71 22.5346 146.925 22.501 147.154 22.501C147.382 22.501 147.597 22.5363 147.803 22.6052C148.009 22.6757 148.197 22.7736 148.368 22.9018C148.539 23.0285 148.688 23.1792 148.813 23.3524C148.939 23.5256 149.037 23.7164 149.106 23.9248C149.176 24.1333 149.209 24.3513 149.209 24.5822C149.209 24.8131 149.175 25.0312 149.106 25.2396C149.037 25.4481 148.94 25.6389 148.813 25.812C148.688 25.9852 148.539 26.1359 148.368 26.2626C148.197 26.3893 148.009 26.4887 147.803 26.5592C147.597 26.6298 147.382 26.6635 147.154 26.6635ZM147.154 26.4117C147.353 26.4117 147.545 26.3813 147.725 26.3187C147.906 26.2578 148.072 26.1696 148.223 26.0574C148.373 25.9451 148.505 25.8136 148.615 25.6597C148.726 25.5074 148.812 25.339 148.872 25.1562C148.932 24.9735 148.962 24.781 148.962 24.579C148.962 24.377 148.932 24.183 148.872 24.0002C148.812 23.8174 148.726 23.649 148.615 23.4967C148.505 23.3444 148.373 23.2113 148.223 23.0991C148.072 22.9868 147.906 22.9002 147.725 22.8393C147.545 22.7784 147.355 22.7479 147.154 22.7479C146.952 22.7479 146.762 22.7784 146.582 22.8393C146.401 22.9002 146.235 22.9868 146.084 23.0991C145.934 23.2113 145.802 23.3428 145.692 23.4967C145.581 23.649 145.495 23.8174 145.435 24.0002C145.375 24.183 145.345 24.3754 145.345 24.579C145.345 24.7826 145.375 24.9735 145.435 25.1562C145.495 25.339 145.581 25.5074 145.692 25.6597C145.802 25.812 145.934 25.9451 146.084 26.0574C146.235 26.1696 146.401 26.2562 146.582 26.3187C146.762 26.3797 146.952 26.4117 147.154 26.4117ZM146.433 25.6886V23.4726H147.173C147.344 23.4726 147.485 23.5015 147.594 23.5608C147.703 23.6202 147.784 23.7003 147.838 23.803C147.89 23.9056 147.917 24.021 147.917 24.1525C147.917 24.284 147.89 24.3994 147.838 24.5004C147.785 24.6015 147.705 24.68 147.595 24.7377C147.486 24.7955 147.347 24.8243 147.177 24.8243H146.579V24.5822H147.168C147.285 24.5822 147.378 24.5646 147.451 24.5309C147.523 24.4956 147.575 24.4475 147.606 24.3834C147.638 24.3193 147.656 24.2439 147.656 24.1541C147.656 24.0643 147.64 23.9873 147.606 23.9216C147.573 23.8559 147.521 23.8046 147.45 23.7677C147.378 23.7308 147.282 23.7132 147.165 23.7132H146.699V25.6902H146.434L146.433 25.6886ZM147.464 24.6929L148.002 25.6886H147.695L147.165 24.6929H147.464Z" fill="black"/>
</g>
<defs>
<clipPath id="clip0_3330_9929">
<rect width="149.211" height="27" fill="white"/>
</clipPath>
</defs>
</svg>
