<svg width="41" height="41" viewBox="0 0 41 41" fill="none" xmlns="http://www.w3.org/2000/svg">
<rect x="0.667969" y="0.863281" width="40" height="40" rx="20" fill="white"/>
<path d="M26.5195 29.625C25.9883 30.1914 24.5664 30.8633 22.7148 30.8633C17.9961 30.8633 16.9727 27.3945 16.9727 25.3711V19.7461H15.1172C14.9023 19.7461 14.7266 19.5703 14.7266 19.3555V16.6992C14.7266 16.418 14.9023 16.168 15.168 16.0742C17.5898 15.2227 18.3516 13.1055 18.4609 11.5C18.4922 11.0703 18.7148 10.8633 19.0898 10.8633H21.8594C22.0742 10.8633 22.25 11.0391 22.25 11.2539V15.7539H25.4922C25.707 15.7539 25.8828 15.9258 25.8828 16.1406V19.332C25.8828 19.5469 25.707 19.7227 25.4922 19.7227H22.2344V24.9258C22.2344 26.2617 23.1602 27.0195 24.8906 26.3242C25.0781 26.25 25.2422 26.1992 25.3867 26.2383C25.5234 26.2734 25.6133 26.3711 25.6758 26.5469L26.5352 29.0586C26.6055 29.2539 26.6641 29.4727 26.5195 29.625Z" fill="#412C9B"/>
</svg>
