<svg width="386" height="343" viewBox="0 0 386 343" fill="none" xmlns="http://www.w3.org/2000/svg">
<g clip-path="url(#clip0_3275_9326)">
<g clip-path="url(#clip1_3275_9326)">
<g clip-path="url(#clip2_3275_9326)">
<path d="M314.232 0.625H124.715V231.878H314.232V0.625Z" fill="white"/>
<path d="M314.22 232.491H124.715C124.549 232.491 124.39 232.425 124.273 232.308C124.156 232.19 124.09 232.031 124.09 231.866V0.624975C124.09 0.459221 124.156 0.300256 124.273 0.18305C124.39 0.0658449 124.549 0 124.715 0H314.22C314.385 0 314.544 0.0658449 314.662 0.18305C314.779 0.300256 314.845 0.459221 314.845 0.624975V231.866C314.845 232.031 314.779 232.19 314.662 232.308C314.544 232.425 314.385 232.491 314.22 232.491ZM125.34 231.241H313.657V1.24995H125.34V231.241Z" fill="black"/>
<path d="M300.172 15.7246H137.566V178.33H300.172V15.7246Z" fill="#D0C4F9"/>
<path d="M167.027 200.692C167.047 199.2 166.599 197.74 165.746 196.517C164.893 195.293 163.677 194.368 162.27 193.873C160.863 193.377 159.336 193.336 157.904 193.754C156.473 194.172 155.208 195.029 154.29 196.205C153.372 195.024 152.107 194.162 150.673 193.741C149.239 193.319 147.708 193.359 146.298 193.856C144.888 194.352 143.67 195.279 142.816 196.506C141.962 197.733 141.516 199.197 141.54 200.692C141.632 202.48 142.412 204.164 143.715 205.392C144.352 206.108 145.028 206.788 145.74 207.429L154.29 215.266L162.827 207.429C163.546 206.791 164.226 206.111 164.864 205.392C166.168 204.166 166.944 202.48 167.027 200.692Z" fill="white"/>
<path d="M154.289 215.892C154.132 215.889 153.982 215.832 153.864 215.729L145.314 207.892C144.514 207.155 143.839 206.48 143.239 205.817C141.831 204.478 140.998 202.646 140.914 200.705C140.905 198.821 141.575 196.998 142.801 195.568C144.027 194.138 145.726 193.197 147.589 192.918C148.811 192.743 150.058 192.863 151.224 193.27C152.389 193.677 153.441 194.358 154.289 195.255C155.134 194.357 156.182 193.676 157.346 193.269C158.511 192.862 159.755 192.741 160.976 192.918C162.838 193.197 164.538 194.138 165.764 195.568C166.99 196.998 167.659 198.821 167.651 200.705C167.567 202.646 166.734 204.478 165.326 205.817C164.726 206.48 164.076 207.167 163.251 207.892L154.701 215.729C154.588 215.831 154.441 215.889 154.289 215.892ZM148.664 194.093C148.36 194.074 148.055 194.074 147.751 194.093C146.19 194.327 144.765 195.115 143.737 196.313C142.709 197.511 142.146 199.039 142.152 200.617C142.231 202.26 142.954 203.804 144.164 204.917C144.788 205.617 145.452 206.28 146.151 206.905L154.276 214.404L162.388 206.967C163.085 206.336 163.749 205.668 164.376 204.967C165.586 203.854 166.309 202.31 166.388 200.667C166.407 199.306 165.998 197.973 165.219 196.857C164.44 195.74 163.329 194.897 162.045 194.445C160.761 193.994 159.367 193.957 158.061 194.34C156.754 194.723 155.601 195.506 154.764 196.58C154.703 196.651 154.627 196.709 154.542 196.748C154.456 196.787 154.364 196.807 154.27 196.807C154.176 196.807 154.083 196.787 153.998 196.748C153.913 196.709 153.837 196.651 153.776 196.58C153.171 195.802 152.396 195.173 151.51 194.741C150.623 194.31 149.65 194.088 148.664 194.093Z" fill="black"/>
<path d="M252.512 194.78V213.954L260.449 206.204L268.374 213.954V194.78H252.512Z" fill="white"/>
<path d="M268.367 214.579C268.285 214.58 268.203 214.564 268.128 214.531C268.053 214.499 267.985 214.451 267.929 214.391L260.429 207.079L252.93 214.391C252.842 214.477 252.732 214.535 252.612 214.559C252.492 214.582 252.367 214.57 252.254 214.523C252.141 214.476 252.044 214.398 251.975 214.297C251.907 214.195 251.869 214.076 251.867 213.954V194.78C251.867 194.614 251.933 194.455 252.05 194.338C252.167 194.221 252.326 194.155 252.492 194.155H268.354C268.52 194.155 268.679 194.221 268.796 194.338C268.913 194.455 268.979 194.614 268.979 194.78V213.954C268.977 214.077 268.939 214.197 268.87 214.299C268.802 214.401 268.705 214.481 268.592 214.529C268.519 214.556 268.444 214.573 268.367 214.579ZM253.13 195.405V212.466L260.004 205.754C260.121 205.64 260.278 205.576 260.442 205.576C260.605 205.576 260.763 205.64 260.879 205.754L267.742 212.466V195.405H253.13Z" fill="black"/>
<path d="M224.085 205.454C223.963 205.453 223.844 205.415 223.742 205.346C223.641 205.277 223.562 205.18 223.516 205.067C223.469 204.954 223.457 204.83 223.48 204.71C223.504 204.59 223.562 204.479 223.647 204.392L235.734 192.305C235.793 192.246 235.862 192.2 235.938 192.168C236.014 192.136 236.096 192.12 236.178 192.12C236.261 192.12 236.342 192.136 236.419 192.168C236.495 192.2 236.564 192.246 236.622 192.305C236.736 192.422 236.801 192.579 236.801 192.742C236.801 192.906 236.736 193.063 236.622 193.18L224.522 205.279C224.405 205.392 224.248 205.455 224.085 205.454Z" fill="black"/>
<path d="M201.402 214.216L199.914 208.754C201.26 206.444 201.718 203.722 201.203 201.099C200.688 198.475 199.235 196.128 197.116 194.498C194.997 192.868 192.356 192.066 189.688 192.241C187.02 192.417 184.507 193.558 182.62 195.452C180.732 197.345 179.599 199.862 179.432 202.53C179.265 205.199 180.075 207.837 181.712 209.951C183.349 212.065 185.7 213.511 188.325 214.017C190.951 214.524 193.671 214.057 195.977 212.704L201.402 214.216Z" fill="white"/>
<path d="M201.398 214.841C201.344 214.853 201.289 214.853 201.235 214.841L196.023 213.404C194.334 214.361 192.427 214.865 190.486 214.866C188.206 214.866 185.978 214.19 184.083 212.924C182.188 211.658 180.71 209.858 179.838 207.752C178.966 205.646 178.738 203.329 179.182 201.093C179.627 198.858 180.725 196.804 182.336 195.193C183.948 193.581 186.002 192.483 188.237 192.039C190.473 191.594 192.79 191.822 194.896 192.694C197.002 193.567 198.801 195.044 200.068 196.939C201.334 198.834 202.01 201.062 202.01 203.342C202.008 205.275 201.504 207.174 200.548 208.854L201.998 214.079C202.027 214.185 202.028 214.297 202.002 214.404C201.976 214.512 201.922 214.61 201.848 214.691C201.721 214.794 201.561 214.847 201.398 214.841ZM190.486 193.042C187.761 193.042 185.147 194.125 183.22 196.052C181.293 197.978 180.211 200.592 180.211 203.317C180.211 206.042 181.293 208.655 183.22 210.582C185.147 212.509 187.761 213.591 190.486 213.591C192.295 213.59 194.071 213.097 195.623 212.166C195.7 212.133 195.783 212.116 195.867 212.116C195.95 212.116 196.033 212.133 196.11 212.166L200.498 213.416L199.248 209.016C199.191 208.863 199.191 208.695 199.248 208.542C200.177 206.993 200.669 205.222 200.673 203.417C200.696 200.691 199.636 198.067 197.726 196.121C195.816 194.176 193.212 193.069 190.486 193.042Z" fill="black"/>
<path d="M236.173 192.742L215.023 200.417L224.086 204.829L228.498 213.904L236.173 192.742Z" fill="white"/>
<path d="M228.499 214.529C228.382 214.527 228.268 214.494 228.168 214.432C228.069 214.371 227.989 214.283 227.936 214.179L223.624 205.304L214.749 200.979C214.639 200.924 214.547 200.838 214.485 200.731C214.423 200.625 214.393 200.502 214.399 200.379C214.407 200.257 214.45 200.14 214.523 200.042C214.596 199.945 214.697 199.871 214.812 199.829L235.961 192.155C236.072 192.114 236.193 192.107 236.309 192.132C236.425 192.158 236.531 192.217 236.615 192.301C236.699 192.384 236.757 192.49 236.783 192.606C236.809 192.722 236.801 192.843 236.761 192.955L229.086 214.116C229.045 214.231 228.971 214.332 228.873 214.405C228.775 214.478 228.658 214.521 228.536 214.529H228.499ZM216.624 200.504L224.361 204.254C224.486 204.316 224.587 204.417 224.649 204.542L228.399 212.291L235.111 193.767L216.624 200.504Z" fill="black"/>
<path d="M314.219 201.742V245.191C315.579 245.201 316.937 245.314 318.281 245.528C324.568 246.507 330.3 249.698 334.445 254.525C338.59 259.353 340.876 265.501 340.893 271.864H384.341C384.341 262.656 382.527 253.537 379.003 245.03C375.479 236.522 370.314 228.792 363.803 222.281C357.291 215.769 349.561 210.604 341.053 207.08C332.546 203.556 323.427 201.742 314.219 201.742Z" fill="#53B76E"/>
<path d="M384.341 272.489H340.893C340.727 272.489 340.568 272.424 340.451 272.306C340.334 272.189 340.268 272.03 340.268 271.864C340.257 265.649 338.025 259.642 333.975 254.928C329.925 250.213 324.324 247.101 318.181 246.153C316.871 245.94 315.546 245.827 314.219 245.816C314.053 245.816 313.894 245.75 313.777 245.632C313.66 245.515 313.594 245.356 313.594 245.191V201.742C313.597 201.578 313.664 201.42 313.78 201.304C313.897 201.187 314.054 201.121 314.219 201.117C332.976 201.137 350.959 208.597 364.223 221.861C377.486 235.124 384.946 253.107 384.966 271.864C384.966 272.03 384.9 272.189 384.783 272.306C384.666 272.424 384.507 272.489 384.341 272.489ZM341.518 271.239H383.716C383.531 253.043 376.223 235.643 363.36 222.771C350.497 209.898 333.103 202.578 314.906 202.38V244.578C316.087 244.612 317.265 244.725 318.431 244.916C324.761 245.9 330.545 249.073 334.775 253.884C339.005 258.694 341.413 264.836 341.58 271.239H341.518Z" fill="black"/>
<path d="M294.452 289.726C289.885 284.691 287.419 278.099 287.558 271.302C287.697 264.506 290.432 258.021 295.202 253.177C295.249 253.113 295.304 253.054 295.364 253.002L264.64 222.279C258.129 228.789 252.964 236.518 249.44 245.025C245.915 253.532 244.102 262.65 244.102 271.858C244.102 281.066 245.915 290.184 249.44 298.69C252.964 307.197 258.129 314.927 264.64 321.437L295.364 290.726C295.039 290.401 294.752 290.113 294.452 289.726Z" fill="#2F6E2D"/>
<path d="M264.644 322.062C264.481 322.063 264.324 322 264.207 321.887C250.953 308.623 243.508 290.64 243.508 271.889C243.508 253.138 250.953 235.155 264.207 221.891C264.323 221.776 264.48 221.712 264.644 221.712C264.808 221.712 264.965 221.776 265.082 221.891L295.805 252.615C295.865 252.671 295.913 252.738 295.945 252.814C295.978 252.889 295.995 252.97 295.995 253.052C295.995 253.134 295.978 253.215 295.945 253.29C295.913 253.366 295.865 253.433 295.805 253.49L295.643 253.665C290.99 258.399 288.323 264.733 288.188 271.37C288.053 278.007 290.461 284.444 294.918 289.363L295.205 289.701C295.405 289.913 295.593 290.126 295.793 290.326C295.851 290.384 295.898 290.453 295.93 290.529C295.961 290.605 295.978 290.687 295.978 290.769C295.978 290.852 295.961 290.934 295.93 291.01C295.898 291.086 295.851 291.155 295.793 291.213L265.069 321.937C264.947 322.029 264.796 322.073 264.644 322.062ZM264.644 223.166C251.884 236.161 244.735 253.645 244.735 271.858C244.735 290.07 251.884 307.554 264.644 320.549L294.493 290.713L294.28 290.476L293.993 290.151C289.362 285.046 286.839 278.376 286.932 271.484C287.025 264.593 289.726 257.993 294.493 253.015L264.644 223.166Z" fill="black"/>
<path d="M297.781 250.89C298.691 250.178 299.647 249.527 300.643 248.94C301.318 248.54 302.006 248.165 302.718 247.828C306.296 246.073 310.232 245.17 314.218 245.191V201.742C305.009 201.731 295.889 203.539 287.382 207.063C278.874 210.588 271.147 215.759 264.645 222.279L295.368 253.003C296.128 252.25 296.934 251.544 297.781 250.89Z" fill="#A9E1C3"/>
<path d="M295.37 253.627C295.286 253.628 295.203 253.612 295.125 253.58C295.048 253.547 294.978 253.5 294.92 253.439L264.208 222.728C264.15 222.67 264.103 222.601 264.072 222.525C264.04 222.448 264.023 222.367 264.023 222.284C264.023 222.202 264.04 222.12 264.072 222.044C264.103 221.968 264.15 221.899 264.208 221.84C270.759 215.253 278.55 210.029 287.132 206.472C295.714 202.915 304.916 201.094 314.206 201.116C314.372 201.116 314.531 201.182 314.648 201.299C314.765 201.417 314.831 201.576 314.831 201.741V245.19C314.831 245.355 314.765 245.514 314.648 245.631C314.531 245.749 314.372 245.814 314.206 245.814C310.308 245.793 306.458 246.675 302.957 248.389C302.257 248.723 301.582 249.085 300.932 249.477C299.966 250.044 299.039 250.674 298.157 251.364C297.336 252.004 296.552 252.688 295.807 253.414C295.753 253.479 295.687 253.531 295.611 253.568C295.536 253.604 295.453 253.625 295.37 253.627ZM265.533 222.29L295.37 252.127C295.957 251.577 296.619 251.014 297.394 250.402C298.329 249.673 299.311 249.005 300.332 248.402C301.02 247.986 301.729 247.606 302.457 247.264C305.925 245.556 309.728 244.639 313.594 244.577V202.379C295.588 202.483 278.337 209.63 265.533 222.29Z" fill="black"/>
<path d="M338.217 283.451C336.338 287.34 333.542 290.714 330.068 293.282C326.595 295.849 322.549 297.533 318.28 298.188C316.937 298.413 315.579 298.53 314.218 298.538C312.412 298.54 310.611 298.356 308.843 297.988C303.737 296.939 299.052 294.414 295.368 290.726L264.645 321.437C274.449 331.245 286.942 337.926 300.544 340.633C314.145 343.341 328.244 341.953 341.057 336.647C353.87 331.34 364.821 322.353 372.526 310.821C380.23 299.29 384.341 285.732 384.34 271.864H340.891C340.89 275.879 339.975 279.841 338.217 283.451Z" fill="white"/>
<path d="M314.218 342.611C304.929 342.637 295.726 340.819 287.144 337.264C278.562 333.709 270.77 328.487 264.22 321.899C264.161 321.841 264.115 321.772 264.083 321.696C264.052 321.62 264.035 321.538 264.035 321.456C264.035 321.373 264.052 321.292 264.083 321.215C264.115 321.139 264.161 321.07 264.22 321.012L294.906 290.276C295.025 290.16 295.184 290.096 295.35 290.096C295.516 290.096 295.675 290.16 295.794 290.276C299.389 293.89 303.973 296.36 308.968 297.375C314.645 298.518 320.541 297.743 325.73 295.173C330.92 292.604 335.11 288.384 337.642 283.176C339.365 279.654 340.258 275.785 340.254 271.864C340.254 271.698 340.32 271.539 340.438 271.422C340.555 271.305 340.714 271.239 340.879 271.239H384.328C384.493 271.239 384.652 271.305 384.77 271.422C384.887 271.539 384.953 271.698 384.953 271.864C384.933 290.619 377.474 308.6 364.214 321.863C350.953 335.126 332.973 342.588 314.218 342.611ZM265.47 321.449C275.2 331.003 287.526 337.482 300.912 340.081C314.298 342.68 328.153 341.284 340.752 336.066C353.35 330.848 364.135 322.04 371.763 310.737C379.392 299.434 383.526 286.137 383.653 272.501H341.517C341.359 278.912 338.954 285.063 334.723 289.881C330.492 294.699 324.704 297.878 318.368 298.863C315.166 299.393 311.894 299.321 308.718 298.65C303.696 297.627 299.067 295.199 295.369 291.651L265.47 321.449Z" fill="black"/>
<path d="M75.125 222.278L105.849 253.002C106.817 252.052 107.853 251.175 108.949 250.377C114.086 246.623 120.394 244.824 126.738 245.305C133.083 245.787 139.048 248.516 143.56 253.002L174.284 222.278C161.132 209.134 143.299 201.75 124.704 201.75C106.11 201.75 88.2767 209.134 75.125 222.278Z" fill="#F3F399"/>
<path d="M105.846 253.627C105.677 253.627 105.515 253.559 105.396 253.44L74.6849 222.728C74.6263 222.67 74.5798 222.601 74.5481 222.525C74.5164 222.449 74.5 222.367 74.5 222.285C74.5 222.202 74.5164 222.121 74.5481 222.044C74.5798 221.968 74.6263 221.899 74.6849 221.841C87.96 208.609 105.939 201.178 124.683 201.178C143.426 201.178 161.406 208.609 174.681 221.841C174.796 221.96 174.861 222.119 174.861 222.285C174.861 222.45 174.796 222.61 174.681 222.728L143.957 253.44C143.899 253.498 143.83 253.545 143.754 253.576C143.678 253.608 143.596 253.625 143.513 253.625C143.431 253.625 143.349 253.608 143.273 253.576C143.197 253.545 143.128 253.498 143.07 253.44C138.658 249.082 132.839 246.437 126.655 245.979C120.471 245.521 114.326 247.279 109.321 250.94C108.248 251.697 107.233 252.533 106.284 253.44C106.228 253.5 106.16 253.547 106.085 253.58C106.009 253.612 105.928 253.628 105.846 253.627ZM76.0098 222.291L105.846 252.127C106.708 251.317 107.622 250.566 108.584 249.877C112.149 247.263 116.297 245.555 120.67 244.902C125.043 244.249 129.509 244.669 133.683 246.127C137.371 247.392 140.74 249.443 143.557 252.14L173.393 222.303C160.392 209.557 142.912 202.415 124.704 202.413C106.497 202.411 89.0142 209.547 76.0098 222.291Z" fill="black"/>
<path d="M123.362 298.463C116.57 298.14 110.16 295.226 105.451 290.319C100.743 285.413 98.094 278.889 98.0505 272.089C98.0505 272.014 98.0505 271.939 98.0505 271.864H54.5898C54.5931 290.459 61.9824 308.292 75.1325 321.44C88.2826 334.588 106.117 341.974 124.712 341.974V298.538C124.262 298.538 123.812 298.488 123.362 298.463Z" fill="white"/>
<path d="M124.7 342.611C115.411 342.611 106.212 340.781 97.6305 337.226C89.0485 333.672 81.2508 328.461 74.6825 321.893C68.1142 315.325 62.9039 307.527 59.3492 298.945C55.7944 290.363 53.9648 281.165 53.9648 271.876C53.9652 271.707 54.0327 271.545 54.1523 271.426C54.2697 271.313 54.4267 271.25 54.5897 271.251H98.038C98.2038 271.251 98.3627 271.317 98.48 271.434C98.5972 271.551 98.663 271.71 98.663 271.876V272.101C98.7096 278.742 101.298 285.113 105.897 289.904C110.495 294.695 116.754 297.543 123.387 297.863H123.837H124.7C124.865 297.863 125.024 297.928 125.141 298.046C125.259 298.163 125.325 298.322 125.325 298.488V341.923C125.325 342.089 125.259 342.248 125.141 342.365C125.024 342.482 124.865 342.548 124.7 342.548V342.611ZM55.2147 272.489C55.3746 290.705 62.6821 308.13 75.5636 321.012C88.4452 333.894 105.871 341.201 124.087 341.361V299.138H123.762H123.337C116.441 298.815 109.925 295.882 105.111 290.934C100.297 285.985 97.5451 279.391 97.413 272.489H55.2147Z" fill="black"/>
<path d="M98.2506 268.664C98.3924 267.514 98.6095 266.374 98.9006 265.252C99.0876 264.491 99.3129 263.74 99.5756 263.002C100.283 260.952 101.244 259 102.438 257.19C103.429 255.681 104.572 254.277 105.85 253.002L75.1266 222.279C68.6097 228.786 63.4411 236.516 59.9171 245.025C56.393 253.534 54.5827 262.654 54.5899 271.864H98.0382C98.0463 270.794 98.1172 269.726 98.2506 268.664Z" fill="#2D3B00"/>
<path d="M98.0382 272.489H54.5899C54.4252 272.486 54.2681 272.419 54.1516 272.303C54.0351 272.186 53.9682 272.029 53.965 271.864C53.943 262.574 55.7633 253.372 59.3205 244.79C62.8778 236.208 68.1014 228.417 74.6892 221.866C74.8081 221.751 74.9672 221.687 75.1329 221.687C75.2985 221.687 75.4577 221.751 75.5766 221.866L106.288 252.615C106.348 252.671 106.395 252.739 106.428 252.814C106.461 252.889 106.477 252.971 106.477 253.053C106.477 253.135 106.461 253.216 106.428 253.291C106.395 253.366 106.348 253.434 106.288 253.49C105.04 254.736 103.922 256.106 102.951 257.577C101.797 259.355 100.861 261.264 100.163 263.265C99.9131 263.99 99.6881 264.727 99.5006 265.452C99.2174 266.549 99.0086 267.664 98.8756 268.789C98.7388 269.826 98.6679 270.869 98.6632 271.914C98.66 272.079 98.5931 272.236 98.4766 272.353C98.36 272.469 98.2029 272.536 98.0382 272.539V272.489ZM55.2149 271.239H97.4132C97.4132 270.439 97.5007 269.577 97.6132 268.589C97.7576 267.41 97.9789 266.241 98.2757 265.09C98.4757 264.327 98.7132 263.552 98.9757 262.79C99.7041 260.695 100.687 258.696 101.901 256.84C102.807 255.477 103.827 254.193 104.951 253.003L75.1141 223.166C62.4653 235.982 55.3246 253.233 55.2149 271.239Z" fill="black"/>
<path d="M149.908 263.089C151.319 267.175 151.715 271.542 151.062 275.815C150.409 280.087 148.726 284.137 146.158 287.613C145.37 288.722 144.493 289.763 143.533 290.726C141.061 293.206 138.123 295.172 134.888 296.513C131.653 297.854 128.185 298.542 124.684 298.538V341.974C138.549 341.969 152.102 337.855 163.63 330.149C175.158 322.444 184.142 311.494 189.448 298.683C194.753 285.873 196.142 271.777 193.438 258.177C190.734 244.578 184.059 232.085 174.257 222.279L143.533 253.002C146.396 255.837 148.576 259.287 149.908 263.089Z" fill="#E0E000"/>
<path d="M124.715 342.611C124.549 342.611 124.39 342.545 124.273 342.428C124.156 342.311 124.09 342.152 124.09 341.986V298.538C124.09 298.372 124.156 298.213 124.273 298.096C124.39 297.978 124.549 297.913 124.715 297.913C128.135 297.913 131.522 297.238 134.681 295.928C137.841 294.617 140.71 292.696 143.127 290.275C144.034 289.331 144.87 288.32 145.626 287.251C148.123 283.849 149.754 279.892 150.379 275.719C151.004 271.547 150.604 267.285 149.214 263.302C147.94 259.589 145.837 256.217 143.064 253.439C142.95 253.323 142.885 253.166 142.885 253.002C142.885 252.838 142.95 252.681 143.064 252.564L173.788 221.841C173.907 221.725 174.066 221.661 174.232 221.661C174.397 221.661 174.556 221.725 174.675 221.841C184.569 231.732 191.307 244.334 194.038 258.055C196.769 271.775 195.37 285.997 190.019 298.923C184.667 311.848 175.603 322.897 163.972 330.671C152.342 338.445 138.667 342.596 124.677 342.598L124.715 342.611ZM125.34 299.163V341.361C138.978 341.24 152.279 337.109 163.585 329.482C174.892 321.854 183.704 311.068 188.923 298.467C194.141 285.867 195.537 272.009 192.934 258.621C190.332 245.232 183.847 232.906 174.288 223.178L144.452 253.014C148.864 257.662 151.506 263.711 151.917 270.106C152.328 276.502 150.483 282.839 146.701 288.013C145.883 289.134 144.985 290.195 144.014 291.188C139.053 296.16 132.362 299.021 125.34 299.175V299.163Z" fill="black"/>
<path d="M203.763 141.469C203.679 141.471 203.596 141.455 203.518 141.423C203.441 141.391 203.371 141.343 203.313 141.282L173.84 109.92C173.725 109.799 173.664 109.638 173.668 109.472C173.673 109.305 173.744 109.147 173.865 109.033C173.986 108.919 174.147 108.857 174.314 108.862C174.48 108.866 174.638 108.937 174.752 109.058L203.763 139.932L236.025 105.883L270.586 65.8222C270.639 65.7585 270.704 65.7059 270.777 65.6676C270.851 65.6292 270.931 65.6059 271.014 65.5989C271.096 65.592 271.179 65.6015 271.258 65.6269C271.337 65.6524 271.41 65.6933 271.473 65.7472C271.588 65.8662 271.653 66.0253 271.653 66.191C271.653 66.3566 271.588 66.5158 271.473 66.6347L236.887 106.721L204.163 141.282C204.057 141.39 203.915 141.456 203.763 141.469Z" fill="black"/>
<path d="M179.886 103.908H168.711V115.083H179.886V103.908Z" fill="white"/>
<path d="M179.906 115.695H168.656C168.491 115.695 168.332 115.629 168.214 115.512C168.097 115.395 168.031 115.236 168.031 115.07V103.87C168.031 103.705 168.097 103.546 168.214 103.428C168.332 103.311 168.491 103.245 168.656 103.245H179.906C180.072 103.245 180.231 103.311 180.348 103.428C180.465 103.546 180.531 103.705 180.531 103.87V115.12C180.518 115.277 180.447 115.423 180.331 115.53C180.215 115.636 180.063 115.695 179.906 115.695ZM169.356 114.445H179.281V104.533H169.356V114.445Z" fill="black"/>
<path d="M209.346 135.257H198.172V146.432H209.346V135.257Z" fill="white"/>
<path d="M209.346 147.056H198.172C198.006 147.056 197.847 146.991 197.73 146.873C197.613 146.756 197.547 146.597 197.547 146.432V135.257C197.55 135.092 197.617 134.935 197.734 134.819C197.85 134.702 198.007 134.635 198.172 134.632H209.346C209.512 134.632 209.671 134.698 209.788 134.815C209.906 134.932 209.971 135.091 209.971 135.257V146.432C209.971 146.597 209.906 146.756 209.788 146.873C209.671 146.991 209.512 147.056 209.346 147.056ZM198.797 145.807H208.721V135.882H198.797V145.807Z" fill="black"/>
<path d="M242.057 100.733H230.883V111.908H242.057V100.733Z" fill="white"/>
<path d="M242.057 112.52H230.883C230.717 112.52 230.558 112.454 230.441 112.337C230.324 112.22 230.258 112.061 230.258 111.895V100.733C230.258 100.567 230.324 100.408 230.441 100.291C230.558 100.174 230.717 100.108 230.883 100.108H242.057C242.223 100.108 242.382 100.174 242.499 100.291C242.616 100.408 242.682 100.567 242.682 100.733V111.895C242.682 112.061 242.616 112.22 242.499 112.337C242.382 112.454 242.223 112.52 242.057 112.52ZM231.508 111.27H241.432V101.371H231.508V111.27Z" fill="black"/>
<path d="M276.643 60.9473H265.469V72.1219H276.643V60.9473Z" fill="white"/>
<path d="M276.643 72.7468H265.469C265.304 72.7436 265.147 72.6767 265.03 72.5602C264.914 72.4436 264.847 72.2865 264.844 72.1218V60.9472C264.844 60.7815 264.91 60.6225 265.027 60.5053C265.144 60.3881 265.303 60.3223 265.469 60.3223H276.643C276.809 60.3223 276.968 60.3881 277.085 60.5053C277.202 60.6225 277.268 60.7815 277.268 60.9472V72.1218C277.268 72.2875 277.202 72.4465 277.085 72.5637C276.968 72.6809 276.809 72.7468 276.643 72.7468ZM266.094 71.4968H276.018V61.5722H266.156L266.094 71.4968Z" fill="black"/>
<path d="M238.148 106.446L250.723 131.582L253.86 122.158L263.285 119.008L238.148 106.446Z" fill="#653BEB"/>
<path d="M64.3945 62.3974L111.805 61.9474V37.7734L64.3945 38.2359V62.3974Z" fill="#653BEB"/>
<path d="M111.814 0.625H0.792969V24.799H111.814V0.625Z" fill="#653BEB"/>
<path d="M111.809 74.9346H37.9492V99.1086H111.809V74.9346Z" fill="#653BEB"/>
<path d="M111.805 112.095H64.3945V136.269H111.805V112.095Z" fill="#653BEB"/>
<path d="M111.797 149.257H92.7227V173.431H111.797V149.257Z" fill="#653BEB"/>
<path d="M250.722 132.207C250.605 132.207 250.49 132.175 250.391 132.113C250.291 132.051 250.211 131.962 250.16 131.857L237.585 106.721C237.529 106.602 237.51 106.468 237.533 106.338C237.555 106.209 237.617 106.089 237.71 105.996C237.802 105.904 237.92 105.844 238.048 105.824C238.176 105.803 238.307 105.824 238.423 105.883L263.572 118.458C263.682 118.514 263.772 118.601 263.833 118.709C263.893 118.816 263.92 118.939 263.911 119.062C263.902 119.185 263.856 119.302 263.78 119.399C263.704 119.496 263.601 119.569 263.484 119.608L254.36 122.645L251.31 131.782C251.269 131.899 251.195 132.001 251.098 132.076C251 132.152 250.883 132.197 250.76 132.207H250.722ZM239.548 107.833L250.597 129.945L253.272 121.958C253.301 121.865 253.351 121.781 253.418 121.711C253.485 121.642 253.568 121.589 253.66 121.558L261.659 118.895L239.548 107.833Z" fill="black"/>
<path d="M64.3944 63.022C64.2314 63.023 64.0743 62.9602 63.9569 62.847C63.8395 62.7263 63.7725 62.5654 63.7695 62.3971V38.2355C63.7695 38.0698 63.8353 37.9108 63.9525 37.7936C64.0697 37.6764 64.2287 37.6106 64.3944 37.6106L111.805 37.1481C111.888 37.1416 111.971 37.1553 112.047 37.188C112.123 37.2206 112.19 37.2713 112.243 37.3356C112.303 37.3914 112.35 37.4591 112.383 37.5345C112.415 37.6098 112.431 37.6911 112.43 37.7731V61.9471C112.43 62.1107 112.366 62.2678 112.251 62.3846C112.137 62.5015 111.981 62.5688 111.818 62.5721L64.4069 63.022H64.3944ZM65.0194 38.848V61.7721L111.168 61.3721V38.4105L65.0194 38.848Z" fill="black"/>
<path d="M111.801 25.4115H0.792944C0.62719 25.4115 0.468196 25.3456 0.350991 25.2284C0.233785 25.1112 0.167969 24.9523 0.167969 24.7865V0.624975C0.167969 0.459221 0.233785 0.300256 0.350991 0.18305C0.468196 0.0658449 0.62719 0 0.792944 0H111.801C111.967 0 112.126 0.0658449 112.243 0.18305C112.36 0.300256 112.426 0.459221 112.426 0.624975V24.7865C112.426 24.9523 112.36 25.1112 112.243 25.2284C112.126 25.3456 111.967 25.4115 111.801 25.4115ZM1.41792 24.1615H111.163V1.24995H1.41792V24.1615Z" fill="black"/>
<path d="M111.796 99.7336H37.9492C37.7835 99.7336 37.6246 99.6677 37.5073 99.5505C37.3901 99.4333 37.3242 99.2744 37.3242 99.1086V74.9346C37.3242 74.7688 37.3901 74.6099 37.5073 74.4927C37.6246 74.3755 37.7835 74.3096 37.9492 74.3096H111.796C111.962 74.3096 112.121 74.3755 112.238 74.4927C112.355 74.6099 112.421 74.7688 112.421 74.9346V99.1086C112.421 99.2744 112.355 99.4333 112.238 99.5505C112.121 99.6677 111.962 99.7336 111.796 99.7336ZM38.5742 98.4836H111.159V75.5596H38.5742V98.4836Z" fill="black"/>
<path d="M111.805 136.882H64.3944C64.2287 136.882 64.0697 136.816 63.9525 136.699C63.8353 136.581 63.7695 136.422 63.7695 136.257V112.095C63.7695 111.929 63.8353 111.77 63.9525 111.653C64.0697 111.536 64.2287 111.47 64.3944 111.47H111.805C111.971 111.47 112.13 111.536 112.247 111.653C112.364 111.77 112.43 111.929 112.43 112.095V136.257C112.43 136.422 112.364 136.581 112.247 136.699C112.13 136.816 111.971 136.882 111.805 136.882ZM65.0194 135.632H111.168V112.72H65.0194V135.632Z" fill="black"/>
<path d="M111.797 174.043H92.7227C92.5569 174.043 92.3979 173.977 92.2807 173.86C92.1635 173.743 92.0977 173.584 92.0977 173.418V149.257C92.0977 149.091 92.1635 148.932 92.2807 148.815C92.3979 148.698 92.5569 148.632 92.7227 148.632H111.797C111.963 148.632 112.122 148.698 112.239 148.815C112.356 148.932 112.422 149.091 112.422 149.257V173.418C112.422 173.584 112.356 173.743 112.239 173.86C112.122 173.977 111.963 174.043 111.797 174.043ZM93.3476 172.793H111.159V149.882H93.3476V172.793Z" fill="black"/>
</g>
</g>
</g>
<defs>
<clipPath id="clip0_3275_9326">
<rect width="385" height="343" fill="white" transform="translate(0.167969)"/>
</clipPath>
<clipPath id="clip1_3275_9326">
<rect width="385" height="343" fill="white" transform="translate(0.167969)"/>
</clipPath>
<clipPath id="clip2_3275_9326">
<rect width="385" height="343" fill="white" transform="translate(0.167969)"/>
</clipPath>
</defs>
</svg>
